<?xml version="1.0" encoding="utf-8"?>
<!-- Generator: Adobe Illustrator 27.5.0, SVG Export Plug-In . SVG Version: 6.00 Build 0)  -->
<svg version="1.1" id="图层_1" xmlns="http://www.w3.org/2000/svg" xmlns:xlink="http://www.w3.org/1999/xlink" x="0px" y="0px"
	 viewBox="0 0 503.19 96.28" style="enable-background:new 0 0 503.19 96.28;" xml:space="preserve">
<g>
	<g>
		<g>
			<polygon points="24.77,0.79 20.77,18.6 2.08,57.81 0,30.65 			"/>
		</g>
		<g>
			<polygon points="28.23,0 71.89,33.9 55.28,69.92 25.13,18.76 			"/>
		</g>
		<g>
			<polygon points="91.38,31.78 85.72,71.86 59.28,70.64 77.01,35.6 			"/>
		</g>
		<g>
			<polygon points="22.42,26.84 4.87,62.21 51,70.72 			"/>
		</g>
		<g>
			<polygon points="85.1,76.49 56.62,76.18 38.99,94.26 			"/>
		</g>
		<g>
			<polygon points="4.32,66.49 50.63,75.06 28.38,96.28 			"/>
		</g>
		<g>
			<polygon points="34.67,0 76.46,29.8 90.28,27.21 			"/>
		</g>
	</g>
	<g>
		<g>
			<polygon points="208.83,63.83 208.83,71.42 175.83,71.42 168.23,63.83 168.23,33.67 175.83,33.67 175.83,63.83 			"/>
		</g>
		<g>
			<polygon points="357.72,46.37 351.9,52.19 357.72,58 357.72,71.41 350.12,71.41 350.12,60.5 345.61,55.98 322.04,55.98 
				322.04,71.44 314.45,71.44 314.45,33.67 322.04,33.67 322.04,48.38 345.61,48.38 350.12,43.87 350.12,33.68 357.72,33.68 			"/>
		</g>
		<g>
			<polygon points="424.17,41.37 424.17,48.54 457.17,48.54 457.17,56.2 424.17,56.2 424.17,63.38 456.74,63.38 456.74,71.05 
				424.17,71.05 424.17,71.08 423.42,71.08 416.5,64.13 416.5,33.69 456.74,33.69 456.74,41.37 			"/>
		</g>
		<g>
			<polygon points="503.19,63.75 503.19,63.81 495.84,71.16 471.01,71.16 463.6,63.75 463.6,40.95 471.01,33.53 495.78,33.53 
				503.18,40.94 503.18,40.95 471.01,40.95 471.01,63.75 			"/>
		</g>
		<g>
			<polygon points="409.3,63.83 409.32,64.79 402.68,71.42 364.83,71.42 364.83,63.83 402.43,63.83 402.43,55.98 371.36,55.98 
				364.83,49.46 364.83,40.48 371.68,33.69 409.32,33.69 409.3,41.29 372.43,41.29 372.43,48.38 404.17,48.38 409.3,53.61 			"/>
		</g>
		<g>
			<path d="M251.39,33.67h-29.63l-7.6,6.81v23.35l8.39,7.6h28.83l7.6-7.6V40.48L251.39,33.67z M251.39,63.83h-29.63V41.27h29.63
				V63.83z"/>
		</g>
		<g>
			<path d="M160.91,41.35l-7.6-7.6h-37.22v37.82h37.22l7.6-7.6v-7.48l-3.37-3.43l3.37-3.44V41.35z M153.31,63.97h-29.63v-7.13h29.63
				V63.97z M153.31,49.25h-29.63v-7.91h29.63V49.25z"/>
		</g>
		<g>
			<polygon points="273.69,63.83 306.69,63.83 299.09,71.42 274.48,71.42 266.1,63.83 266.1,40.48 273.69,33.67 299.09,33.67 
				306.69,41.27 273.69,41.27 			"/>
		</g>
	</g>
</g>
</svg>
