<svg width="229" height="40" viewBox="0 0 229 40" fill="none" xmlns="http://www.w3.org/2000/svg">
<g id="logo1">
<path id="Vector" fill-rule="evenodd" clip-rule="evenodd" d="M54.6373 11.8696C50.1494 16.3575 50.1523 23.634 54.6373 28.119C58.5412 32.02 64.5504 32.531 69.0004 29.6461L71.5612 32.2069L74.9337 28.8343L72.3817 26.2823C75.3016 21.8265 74.8052 15.7852 70.8867 11.8667C66.3987 7.38168 59.1223 7.38168 54.6373 11.8667V11.8696ZM64.422 18.3226L68.8486 22.7492C69.961 20.2877 69.5085 17.2919 67.485 15.2684C64.8745 12.658 60.6465 12.658 58.0361 15.2684C55.4257 17.8788 55.4257 22.1068 58.0361 24.7173C60.045 26.7232 63.0116 27.1875 65.4585 26.1071L61.0465 21.6951L64.419 18.3226H64.422ZM128.091 19.3066H130.111V26.9685C130.111 30.2242 131.828 31.3718 135.268 31.3718C136.413 31.3718 137.318 31.2812 138.162 31.1615V27.2109H138.141C137.613 27.2722 137.341 27.3014 136.775 27.3014C135.569 27.3014 134.877 27.0619 134.877 25.7334V19.3096H137.983V15.3297H134.877V10.9265H130.111V15.3268H128.091V19.3066ZM111.757 15.3268H116.58V16.9269C117.454 15.902 118.931 14.9968 120.952 14.9968C124.207 14.9968 126.257 17.2569 126.257 20.7257V31.2199H121.433V22.1127C121.433 20.5126 120.771 19.3388 119.203 19.3388C117.874 19.3388 116.578 20.2731 116.578 22.1419V31.2199H111.754V15.3268H111.757ZM99.7063 21.6893C96.36 22.1711 93.5861 23.4967 93.5861 26.7846C93.5861 29.5906 95.8783 31.5207 99.0756 31.5207C101.157 31.5207 102.723 30.887 103.78 29.8038C104.594 31.1615 106.463 31.6754 109.237 31.2228V27.6635C108.303 27.7861 107.999 27.5437 107.999 26.7291V20.6089C107.999 16.8977 105.315 14.9998 101.274 14.9998C97.2331 14.9998 94.7307 17.2919 94.0358 20.095L98.6493 20.787C98.95 19.4906 99.6741 18.8891 101.061 18.8891C102.629 18.8891 103.263 19.6424 103.263 20.8192V21.0907L99.7063 21.6922V21.6893ZM100.489 24.7027L103.263 24.1917V25.5173C103.263 27.1466 101.785 27.9905 100.185 27.9905C99.0405 27.9905 98.2872 27.4474 98.2872 26.4517C98.2872 25.3363 99.2216 24.9129 100.489 24.7027ZM86.6192 31.217H91.4429V15.3268H86.6192V24.5245C86.6192 26.3933 85.3519 27.3277 84.0263 27.3277C82.4583 27.3277 81.7663 26.3028 81.7663 24.7056V15.3268H76.9426V25.8502C76.9426 29.319 79.0829 31.5499 82.3415 31.5499C84.33 31.5499 85.7491 30.6447 86.6221 29.6519V31.2199L86.6192 31.217ZM142.474 25.637L139.972 28.8898C141.447 30.6067 144.585 31.544 147.359 31.544C151.401 31.544 154.598 29.6461 154.598 26.0546C154.598 22.4631 151.401 21.774 148.536 21.1987L148.422 21.1783C148.355 21.1666 148.288 21.152 148.221 21.1403H148.215C146.501 20.8221 145.669 20.6673 145.669 19.841C145.669 19.1168 146.422 18.6643 147.599 18.6643C149.167 18.6643 150.735 19.3592 151.941 20.6235L154.353 17.5167C153.024 16.0684 150.492 14.9852 147.628 14.9852C143.709 14.9852 140.842 17.1255 140.842 20.3549C140.842 23.7916 143.648 24.4866 146.27 24.9976L146.434 25.0268C146.524 25.0443 146.615 25.0589 146.702 25.0735C148.924 25.4677 149.859 25.6312 149.859 26.624C149.859 27.4678 148.802 27.8912 147.537 27.8912C145.821 27.8912 143.768 27.0473 142.471 25.6312L142.474 25.637ZM155.894 19.3037H157.915V26.9656C157.915 30.2213 159.635 31.3688 163.071 31.3688C164.216 31.3688 165.121 31.2783 165.965 31.1586V27.2079H165.945C165.416 27.2693 165.145 27.2985 164.578 27.2985C163.372 27.2985 162.68 27.059 162.68 25.7305V19.3066H165.787V15.3268H162.68V10.9235H157.915V15.3239H155.894V19.3037ZM167.927 26.7846C167.927 23.4967 170.701 22.1711 174.047 21.6893L177.607 21.0878V20.8162C177.607 19.6395 176.973 18.8862 175.405 18.8862C174.018 18.8862 173.294 19.4877 172.993 20.7841L168.38 20.0921C169.072 17.289 171.577 14.9968 175.618 14.9968C179.66 14.9968 182.343 16.8948 182.343 20.606V26.7262C182.343 27.5408 182.644 27.7832 183.581 27.6605V31.2199C180.807 31.6725 178.938 31.1615 178.121 29.8008C177.067 30.887 175.499 31.5177 173.417 31.5177C170.219 31.5177 167.927 29.5877 167.927 26.7846ZM174.83 24.7027L177.604 24.1917V25.5173C177.604 27.1466 176.126 27.9905 174.529 27.9905C173.385 27.9905 172.631 27.4474 172.631 26.4517C172.631 25.3363 173.566 24.9129 174.833 24.7027H174.83ZM185.818 31.217H190.644V22.139C190.644 20.2702 191.882 19.3358 193.147 19.3358C194.715 19.3358 195.316 20.5126 195.316 22.1098V31.217H200.14V22.139C200.14 20.2702 201.378 19.3358 202.642 19.3358C204.181 19.3358 204.812 20.5126 204.812 22.1098V31.217H209.635V20.7228C209.635 17.2539 207.495 14.9939 204.266 14.9939C201.825 14.9939 200.257 16.1706 199.351 17.1634C198.446 15.8057 196.878 14.9939 194.98 14.9939C192.96 14.9939 191.511 15.8991 190.638 16.924V15.3239H185.815V31.2141L185.818 31.217ZM216.868 29.6519V36.5254H212.044V15.3268H216.868V16.9269C217.773 15.7823 219.28 14.9968 221.181 14.9968C225.552 14.9968 228.025 18.7343 228.025 23.2894C228.025 27.8445 225.552 31.5528 221.181 31.5528C219.283 31.5528 217.773 30.7702 216.868 29.6548V29.6519ZM216.836 23.7099C216.836 26.0925 218.132 27.4474 219.943 27.4474C222.054 27.4474 223.169 25.7275 223.169 23.2865C223.169 20.8454 222.054 19.1256 219.943 19.1256C218.135 19.1256 216.836 20.4512 216.836 22.8631V23.707V23.7099Z" fill="#01091C"/>
<path id="Vector_2" d="M36.1048 19.9985C36.1048 16.8684 35.2055 13.7849 33.4827 11.1629L39.8248 4.78575L35.0712 0L28.7262 6.37711C23.3827 2.87028 16.4683 2.87028 11.1249 6.37711L4.76823 0L0 4.78575L6.34206 11.1629C2.84984 16.5384 2.84984 23.4762 6.34206 28.8517L0 35.2142L4.76823 40L11.1103 33.6229C16.4537 37.1297 23.3681 37.1297 28.7116 33.6229L35.0536 40L39.8219 35.2142L33.4798 28.8371C35.2026 26.2151 36.1194 23.1491 36.1019 20.0015L36.1048 19.9985ZM10.4738 19.9985C10.4738 16.1296 12.8009 12.6374 16.3749 11.195C19.9489 9.75254 24.0455 10.6227 26.7173 13.4083C29.389 16.1968 30.1102 20.3431 28.5218 23.8674L22.2936 17.6042L17.54 22.39L23.7681 28.6532C20.8511 29.9642 17.4582 29.719 14.7719 27.9641C12.1001 26.2092 10.4767 23.2075 10.4767 19.9985H10.4738Z" fill="#0018FF"/>
</g>
</svg>
