<?xml version="1.0" encoding="utf-8"?>
<!-- Generator: Adobe Illustrator 25.2.3, SVG Export Plug-In . SVG Version: 6.00 Build 0)  -->
<svg version="1.1" id="图层_1" xmlns="http://www.w3.org/2000/svg" xmlns:xlink="http://www.w3.org/1999/xlink" x="0px" y="0px"
	 viewBox="0 0 595.3 203" style="enable-background:new 0 0 595.3 203;" xml:space="preserve">
<style type="text/css">
	.st0{opacity:0.8;}
</style>
<g>
	<g>
		<polygon points="154.6,101.2 154.6,92 150.6,92 150.6,79 153.4,79 153.4,74.8 148.8,74.8 148.8,78.3 144.3,78.3 144.3,77.3 
			139.6,77.3 139.6,81.5 144.3,81.5 144.3,79 148.8,79 150,79 150,92 144.3,92 144.3,94.1 137.3,94.1 137.3,87.3 132.6,87.3 
			132.6,74 134.8,74 134.8,67.8 127.8,67.8 127.8,74 132,74 132,87.3 128.4,87.3 128.4,90 121.6,90 121.6,84.7 127.9,84.7 127.9,74 
			119,74 119,67.8 121.3,67.8 121.3,62.2 115.1,62.2 115.1,67.8 118.3,67.8 118.3,74 116.1,74 116.1,83.5 109.4,83.5 108.9,83.5 
			107,83.5 107,80.2 114.3,80.2 114.3,73.1 106.3,73.1 106.3,76.8 106.3,80.2 106.3,83.5 100.2,83.5 100.2,91.9 109.4,91.9 
			109.4,84.1 116.1,84.1 116.1,84.7 120.9,84.7 120.9,92.4 119.5,92.4 119.5,95.2 122.6,95.2 122.6,92.4 121.6,92.4 121.6,90.7 
			128.4,90.7 128.4,95.1 137.3,95.1 137.3,94.7 144.3,94.7 144.3,100.8 143.5,102 138.3,102 138.3,102.5 133.4,102.5 133.4,100.9 
			128.4,100.9 128.4,104.8 124.1,104.8 124.1,97.2 111.3,97.2 111.3,108.8 110,110.1 106.6,110.1 106.6,113.3 110.4,113.3 
			110.4,110.6 112.1,108.9 118.1,108.9 118.1,115.8 113.2,115.8 113.2,121 118.8,121 118.8,119.8 118.8,115.8 118.8,108.9 
			124.1,108.9 124.1,105.5 128.4,105.5 129.8,105.5 133.4,105.5 133.4,103.1 138.3,103.1 138.3,107.4 139.4,107.4 139.4,111.8 
			133.7,111.8 133.7,116.6 132.7,116.6 129,116.6 124.2,116.6 124.2,124 132.7,124 132.7,117.2 133.7,117.2 133.7,117.4 
			140.1,117.4 140.1,114.3 140.1,111.8 140.1,107.4 144.3,107.4 144.3,102 144.3,102 144.8,101.2 		"/>
		<path class="st0" d="M96.7,144.9c-23.4-14-39.6-38.7-41.9-67.3c15.6-2.3,29.9-8.4,41.9-17.5V144.9z"/>
		<path d="M115.2,127.5c-5.4,5.9-11.6,11-18.6,15.2C74.5,129.4,59.2,106.1,57,79c14.7-2.1,28.3-8,39.7-16.5
			c4.6,3.4,9.5,6.4,14.6,8.9v-5.7c-3.7-1.9-7.2-4-10.5-6.5c-1.4-1-2.8-2.1-4.1-3.2c-1.3,1.1-2.7,2.2-4.1,3.2
			C82.2,66.7,70,71.9,56.7,73.8c-1.7,0.3-3.4,0.5-5.1,0.6c0,1.7,0.1,3.4,0.3,5.1c2.3,27.7,17.5,51.7,39.6,65.9
			c1.7,1.1,3.4,2.1,5.1,3.1c1.7-1,3.4-2,5.1-3c7.6-4.9,14.4-11,20.2-18H115.2z"/>
	</g>
	<g>
		<path d="M206.2,100.7c-0.8,0-2.6,0-4.9,0c0,0-0.1,0-0.1,0c-0.3,0-1.7,0-15.5,0c-1.2,0-2.8-1-2.8-2.9c0-0.6,0-15.5,0-16.1
			c0-1.8,1.6-2.9,2.8-2.9c13.7,0,25.1,0,25.4,0c0.9,0,1.5-0.7,1.5-1.6c0-0.4,0-0.5,0-1c0-0.7-0.6-1.5-1.6-1.5c-0.7,0-24.6,0-29.4,0
			c-5,0-7.8,4.2-7.8,7.8c0,1.4,0,13.2,0,14.6c0,3.5,2.8,7.8,7.8,7.8c1.1,0,6.7,0,20.4,0c1.2,0,2.8,1,2.8,2.9c0,0.6,0,15.5,0,16.1
			c0,1.8-1.6,2.9-2.8,2.9c-13.7,0-23.9,0-24.2,0c-0.9,0-1.5,0.7-1.5,1.6c0,0.4,0,0.5,0,1c0,0.7,0.6,1.5,1.6,1.5c0.7,0,23.5,0,28.2,0
			c5,0,7.8-4.2,7.8-7.8c0-1.4,0-13.2,0-14.6C214,104.9,211.2,100.7,206.2,100.7z"/>
		<path d="M488.7,100.7c-0.8,0-6.7,0-20.4,0c-1.2,0-2.8-1-2.8-2.9c0-0.6,0-15.5,0-16.1c0-1.8,1.6-2.9,2.8-2.9c13.7,0,25.1,0,25.4,0
			c0.9,0,1.5-0.7,1.5-1.6c0-0.4,0-0.5,0-1c0-0.7-0.6-1.5-1.6-1.5c-0.7,0-24.6,0-29.4,0c-5,0-7.8,4.2-7.8,7.8c0,1.4,0,13.2,0,14.6
			c0,3.5,2.8,7.8,7.8,7.8c1.1,0,6.7,0,20.4,0c1.2,0,2.8,1,2.8,2.9c0,0.6,0,15.5,0,16.1c0,1.8-1.6,2.9-2.8,2.9c-13.7,0-23.9,0-24.2,0
			c-0.9,0-1.5,0.7-1.5,1.6c0,0.4,0,0.5,0,1c0,0.7,0.6,1.5,1.6,1.5c0.7,0,23.5,0,28.2,0c5,0,7.8-4.2,7.8-7.8c0-1.4,0-13.2,0-14.6
			C496.4,104.9,493.6,100.7,488.7,100.7z"/>
		<path d="M249.8,126.7c-0.3,0-10.8,0-12.7,0c-1.2,0-2.8-1-2.8-2.9c0-0.6,0-46.9,0-47.5c0-1-0.8-1.6-1.5-1.6c-0.6,0-5.5,0-5.9,0
			c-0.8,0-1.6,0.6-1.6,1.5c0,0.1,0,0.5,0,1c0,1.7,0,44.4,0,45.8c0,3.5,2.8,7.8,7.8,7.8c4.8,0,16,0,16.7,0c1,0,1.6-0.8,1.6-1.5
			c0-0.6,0-0.6,0-1C251.3,127.4,250.7,126.7,249.8,126.7z"/>
		<path d="M357.7,74.7c-0.4,0-5.4,0-5.9,0c-0.7,0-1.5,0.6-1.5,1.6c0,0.7,0,46.9,0,47.5c0,1.8-1.6,2.9-2.8,2.9c-1.9,0-4.1,0-4.4,0
			c-0.9,0-1.5,0.7-1.5,1.6c0,0.4,0,0.5,0,1c0,0.7,0.6,1.5,1.6,1.5c0.7,0,3.6,0,8.4,0c5,0,7.8-4.2,7.8-7.8c0-1.4,0-44.1,0-45.8
			c0-0.6,0-0.9,0-1C359.3,75.3,358.5,74.7,357.7,74.7z"/>
		<path d="M324.6,126.7c-0.3,0-2.5,0-4.4,0c-1.2,0-2.8-1-2.8-2.9c0-0.6,0-46.9,0-47.5c0-1-0.8-1.6-1.5-1.6c-0.6,0-5.5,0-5.9,0
			c-0.8,0-1.6,0.6-1.6,1.5c0,0.1,0,0.5,0,1c0,1.7,0,44.4,0,45.8c0,3.5,2.8,7.8,7.8,7.8c4.8,0,7.7,0,8.4,0c1,0,1.6-0.8,1.6-1.5
			c0-0.6,0-0.6,0-1C326.1,127.4,325.5,126.7,324.6,126.7z"/>
		<path d="M282.5,126.7c-0.3,0-10.4,0-12.2,0c-1.2,0-2.8-1-2.8-2.9c0-0.6,0-46.9,0-47.5c0-1-0.8-1.6-1.5-1.6c-0.6,0-5.5,0-5.9,0
			c-0.8,0-1.6,0.6-1.6,1.5c0,0.1,0,0.5,0,1c0,1.7,0,44.4,0,45.8c0,3.5,2.8,7.8,7.8,7.8c4.8,0,15.6,0,16.2,0c1,0,1.6-0.8,1.6-1.5
			c0-0.6,0-0.6,0-1C284.1,127.4,283.4,126.7,282.5,126.7z"/>
		<path d="M442.7,74.7c-0.6,0-5.5,0-5.9,0c-0.8,0-1.6,0.6-1.6,1.5c0,0.1,0,0.5,0,1c0,1,0,51.7,0,51.9c0,1,0.8,1.6,1.5,1.6
			c0.6,0,5.5,0,5.9,0c0.8,0,1.6-0.6,1.6-1.5c0-0.1,0-52.7,0-52.9C444.2,75.3,443.4,74.7,442.7,74.7z"/>
		<path d="M336.8,74.7c-0.6,0-5.5,0-5.9,0c-0.8,0-1.6,0.6-1.6,1.5c0,0.1,0,0.5,0,1c0,1,0,51.7,0,51.9c0,1,0.8,1.6,1.5,1.6
			c0.6,0,5.5,0,5.9,0c0.8,0,1.6-0.6,1.6-1.5c0-0.1,0-52.7,0-52.9C338.4,75.3,337.6,74.7,336.8,74.7z"/>
		<path d="M387.9,74.7c-0.7,0-3.6,0-8.4,0c-5,0-7.8,4.2-7.8,7.8c0,1.4,0,44.1,0,45.8c0,0.6,0,0.9,0,1c0,0.9,0.7,1.5,1.6,1.5
			c0.4,0,5.4,0,5.9,0c0.7,0,1.5-0.6,1.5-1.6c0-0.7,0-46.9,0-47.5c0-1.8,1.6-2.9,2.8-2.9c1.9,0,4.1,0,4.4,0c0.9,0,1.5-0.7,1.5-1.6
			c0-0.4,0-0.5,0-1C389.5,75.5,388.9,74.7,387.9,74.7z"/>
		<path d="M414.9,74.7c-4.8,0-7.7,0-8.4,0c-1,0-1.6,0.8-1.6,1.5c0,0.6,0,0.6,0,1c0,0.8,0.6,1.6,1.5,1.6c0.3,0,2.5,0,4.4,0
			c1.2,0,2.8,1,2.8,2.9c0,0.6,0,46.9,0,47.5c0,1,0.8,1.6,1.5,1.6c0.6,0,5.5,0,5.9,0c0.8,0,1.6-0.6,1.6-1.5c0-0.1,0-0.5,0-1
			c0-1.7,0-44.4,0-45.8C422.6,79,419.8,74.7,414.9,74.7z"/>
		<path d="M288.1,74.7c-4.8,0-15.6,0-16.2,0c-1,0-1.6,0.8-1.6,1.5c0,0.6,0,0.6,0,1c0,0.8,0.6,1.6,1.5,1.6c0.3,0,10.4,0,12.2,0
			c1.2,0,2.8,1,2.8,2.9c0,0.6,0,46.9,0,47.5c0,1,0.8,1.6,1.5,1.6c0.6,0,5.5,0,5.9,0c0.8,0,1.6-0.6,1.6-1.5c0-0.1,0-0.5,0-1
			c0-1.7,0-44.4,0-45.8C295.9,79,293.1,74.7,288.1,74.7z"/>
		<path d="M518.4,74.7c-4.8,0-12.6,0-13.3,0c-1,0-1.6,0.8-1.6,1.5c0,0.6,0,0.6,0,1c0,0.8,0.6,1.6,1.5,1.6c0.3,0,7.4,0,9.3,0
			c1.2,0,2.8,1,2.8,2.9c0,0.6,0,46.9,0,47.5c0,1,0.8,1.6,1.5,1.6c0.6,0,5.5,0,5.9,0c0.8,0,1.6-0.6,1.6-1.5c0-0.1,0-0.5,0-1
			c0-1.7,0-44.4,0-45.8C526.2,78.9,523.4,74.7,518.4,74.7z"/>
		<path d="M400.2,74.8c-0.6,0-5.5,0-5.9,0c-0.8,0-1.6,0.6-1.6,1.5c0,0.1,0,52.7,0,52.9c0,1,0.8,1.6,1.5,1.6c0.6,0,5.5,0,5.9,0
			c0.8,0,1.6-0.6,1.6-1.5c0-0.1,0-0.5,0-1c0-1,0-51.7,0-51.9C401.7,75.4,400.9,74.8,400.2,74.8z"/>
		<path d="M540.4,74.7c-0.2,0-5.9,0-6,0c-0.9,0-1.5,0.7-1.5,1.6c0,0.4,0,4.9,0,5.4c0,0.7,0.6,1.5,1.6,1.5c0.2,0,5.9,0,6,0
			c0.9,0,1.5-0.7,1.5-1.6c0-0.4,0-4.9,0-5.4C542,75.5,541.4,74.7,540.4,74.7z"/>
	</g>
</g>
</svg>
